<svg xmlns="http://www.w3.org/2000/svg" width="1100" height="650" viewBox="0 0 1100 650" fill="#202c3b" role="img" aria-labelledby="title description">
<title id="title">工作过程与资料流</title><desc id="description">围绕目标查证、执行与交付，持续保存依据和经验。</desc>
<defs><marker id="work" viewBox="0 0 8 8" markerWidth="7" markerHeight="7" refX="7" refY="4" orient="auto"><path d="M1 1L7 4L1 7" fill="none" stroke="#475569" stroke-width="1.4" stroke-linejoin="round"/></marker><marker id="data" viewBox="0 0 8 8" markerWidth="7" markerHeight="7" refX="7" refY="4" orient="auto"><path d="M1 1L7 4L1 7" fill="none" stroke="#486e99" stroke-width="1.4" stroke-linejoin="round"/></marker></defs>
<style>text{font-family:Arial,'Microsoft YaHei',sans-serif}.work{fill:none;stroke:#475569;stroke-width:1.7}.data{fill:none;stroke:#486e99;stroke-width:1.7}.feedback{fill:none;stroke:#667487;stroke-width:1.5;stroke-dasharray:6 5}</style>
<rect width="1100" height="650" fill="#fff"/>
<text x="40" y="44" font-size="28" font-weight="600">工作过程与资料流</text><text x="40" y="78" font-size="18" fill="#536171">围绕目标查证、执行与交付，持续保存依据和经验。</text>
<path d="M948 210V137H333V210" class="feedback" marker-end="url(#work)"/><text x="640" y="125" text-anchor="middle" font-size="18" fill="#536171">使用反馈，修正当前任务</text>
<rect x="44" y="210" width="168" height="96" rx="3" fill="#fff" stroke="#9ba9b9"/><text x="128" y="247" text-anchor="middle" font-size="21" font-weight="600">目标与补充</text><text x="128" y="280" text-anchor="middle" font-size="17" fill="#536171">用户输入</text>
<rect x="249" y="210" width="168" height="96" rx="3" fill="#fff" stroke="#9ba9b9"/><text x="333" y="247" text-anchor="middle" font-size="21" font-weight="600">当前任务</text><text x="333" y="280" text-anchor="middle" font-size="17" fill="#536171">目标与条件</text>
<rect x="454" y="210" width="168" height="96" rx="3" fill="#fff" stroke="#9ba9b9"/><text x="538" y="247" text-anchor="middle" font-size="21" font-weight="600">资料研究</text><text x="538" y="280" text-anchor="middle" font-size="17" fill="#536171">来源与判断</text>
<rect x="659" y="210" width="168" height="96" rx="3" fill="#fff" stroke="#9ba9b9"/><text x="743" y="247" text-anchor="middle" font-size="21" font-weight="600">实际执行</text><text x="743" y="280" text-anchor="middle" font-size="17" fill="#536171">工具与执行者</text>
<rect x="864" y="210" width="168" height="96" rx="3" fill="#fff" stroke="#9ba9b9"/><text x="948" y="247" text-anchor="middle" font-size="21" font-weight="600">交付成果</text><text x="948" y="280" text-anchor="middle" font-size="17" fill="#536171">产物与接续</text><path d="M212 258H245" class="work" marker-end="url(#work)"/>
<path d="M417 258H450" class="work" marker-end="url(#work)"/>
<path d="M622 258H655" class="work" marker-end="url(#work)"/>
<path d="M827 258H860" class="work" marker-end="url(#work)"/>
<path d="M310 550V306" class="data" marker-end="url(#data)"/><text x="288" y="416" text-anchor="end" font-size="18" fill="#486e99"><tspan x="288">读取</tspan><tspan x="288" dy="24">当前依据</tspan></text>
<path d="M538 306V550" class="data" marker-end="url(#data)"/><text x="522" y="460" text-anchor="end" font-size="18" fill="#486e99"><tspan x="522">保存</tspan><tspan x="522" dy="24">来源证据</tspan></text>
<path d="M948 306V550" class="data" marker-end="url(#data)"/><text x="965" y="440" text-anchor="start" font-size="18" fill="#486e99"><tspan x="965">保存进度</tspan><tspan x="965" dy="24">与适用经验</tspan></text>
<rect x="655" y="402" width="175" height="85" rx="3" fill="#fafbfc" stroke="#9ba9b9"/><text x="742.5" y="436" text-anchor="middle" font-size="21" font-weight="600">AI 宿主</text><text x="742.5" y="468" text-anchor="middle" font-size="16" fill="#536171">模型 · 工具 · 事件</text>
<path d="M743 402V306" class="work" marker-end="url(#work)"/><text x="757" y="352" text-anchor="start" font-size="18" fill="#536171"><tspan x="757">提供模型</tspan><tspan x="757" dy="24">和工具能力</tspan></text>
<rect x="210" y="550" width="824" height="76" rx="3" fill="#fafbfc" stroke="#9ba9b9"/><text x="622" y="582" text-anchor="middle" font-size="21">项目 · 知识 · 经验 · 对象 · 资源</text><text x="622" y="610" text-anchor="middle" font-size="17" fill="#536171">任务原件、来源证据和实际成果保存在这里</text>
</svg>
